<svg xmlns="http://www.w3.org/2000/svg" viewBox="0 18.5 25.450000762939453 35" data-asc="1.07" width="25.450000762939453" height="35"><defs/><g fill="currentColor"><g transform="translate(0, 0)"><path d="M5.35 35.75L11.65 35.75Q15.15 35.75 17.80 34.77Q20.45 33.80 21.95 31.90Q23.45 30 23.45 27.35Q23.45 24.35 21.95 22.40Q20.45 20.45 17.80 19.48Q15.15 18.50 11.65 18.50L0 18.50L0 53.50L12.40 53.50Q16.30 53.50 19.25 52.45Q22.20 51.40 23.82 49.20Q25.45 47 25.45 43.55Q25.45 40.95 24.38 39.10Q23.30 37.25 21.45 36.08Q19.60 34.90 17.28 34.35Q14.95 33.80 12.40 33.80L5.35 33.80L5.35 37.70L11.75 37.70Q13.10 37.70 14.25 37.98Q15.40 38.25 16.28 38.88Q17.15 39.50 17.63 40.42Q18.10 41.35 18.10 42.65Q18.10 44.45 17.28 45.60Q16.45 46.75 15 47.27Q13.55 47.80 11.75 47.80L7.15 47.80L7.15 24.20L11 24.20Q13.35 24.20 14.73 25.25Q16.10 26.30 16.10 28.30Q16.10 29.60 15.48 30.55Q14.85 31.50 13.70 32Q12.55 32.50 11 32.50L5.35 32.50L5.35 35.75Z"/></g></g></svg>
